{"accessors":[{"bufferView":0,"componentType":5126,"count":4,"type":"VEC3"},{"bufferView":1,"componentType":5126,"count":4,"max":[0.03175000101327896,0.0001500000071246177,0.04762500151991844],"min":[-0.03175000101327896,0.0001500000071246177,-0.04762500151991844],"type":"VEC3"},{"bufferView":2,"componentType":5126,"count":4,"type":"VEC2"},{"bufferView":3,"componentType":5123,"count":6,"type":"SCALAR"},{"bufferView":4,"componentType":5126,"count":4,"type":"VEC3"},{"bufferView":5,"componentType":5126,"count":4,"max":[0.03175000101327896,-0.0001500000071246177,0.04762500151991844],"min":[-0.03175000101327896,-0.0001500000071246177,-0.04762500151991844],"type":"VEC3"},{"bufferView":6,"componentType":5126,"count":4,"type":"VEC2"},{"bufferView":7,"componentType":5123,"count":6,"type":"SCALAR"},{"bufferView":8,"componentType":5126,"count":112,"type":"VEC3"},{"bufferView":9,"componentType":5126,"count":112,"type":"VEC3"},{"bufferView":10,"componentType":5126,"count":112,"max":[0.03175000101327896,0.0001500000071246177,0.04762500151991844],"min":[-0.03175000101327896,-0.0001500000071246177,-0.04762500151991844],"type":"VEC3"},{"bufferView":11,"componentType":5126,"count":112,"type":"VEC2"},{"bufferView":12,"componentType":5123,"count":288,"type":"SCALAR"}],"asset":{"generator":"Probability Play","version":"2.0"},"bufferViews":[{"buffer":0,"byteLength":48,"byteOffset":0,"target":34962},{"buffer":0,"byteLength":48,"byteOffset":48,"target":34962},{"buffer":0,"byteLength":32,"byteOffset":96,"target":34962},{"buffer":0,"byteLength":12,"byteOffset":128,"target":34963},{"buffer":0,"byteLength":48,"byteOffset":140,"target":34962},{"buffer":0,"byteLength":48,"byteOffset":188,"target":34962},{"buffer":0,"byteLength":32,"byteOffset":236,"target":34962},{"buffer":0,"byteLength":12,"byteOffset":268,"target":34963},{"buffer":0,"byteLength":1344,"byteOffset":280,"target":34962},{"buffer":0,"byteLength":1344,"byteOffset":1624,"target":34962},{"buffer":0,"byteLength":1344,"byteOffset":2968,"target":34962},{"buffer":0,"byteLength":896,"byteOffset":4312,"target":34962},{"buffer":0,"byteLength":576,"byteOffset":5208,"target":34963}],"extensionsUsed":["EXT_texture_avif"],"extensionsRequired":["EXT_texture_avif"],"images":[{"mimeType":"image/avif","uri":"/resources/assets/cards/christian/24_0.3mm.avif"},{"mimeType":"image/svg+xml","uri":"/resources/assets/cards/christian/back_0.3mm.svg"}],"materials":[{"name":"plain edge","alphaMode":"BLEND","pbrMetallicRoughness":{"baseColorFactor":[0.955973,0.871367,0.791298,0.9999912155234623],"metallicFactor":0,"roughnessFactor":0.86}},{"alphaMode":"BLEND","name":"printed face","pbrMetallicRoughness":{"baseColorTexture":{"index":0},"metallicFactor":0,"roughnessFactor":0.8}},{"alphaMode":"BLEND","name":"printed face","pbrMetallicRoughness":{"baseColorTexture":{"index":1},"metallicFactor":0,"roughnessFactor":0.8}}],"meshes":[{"name":"Piece","primitives":[{"attributes":{"NORMAL":0,"POSITION":1,"TEXCOORD_0":2},"indices":3,"material":1,"mode":4},{"attributes":{"NORMAL":4,"POSITION":5,"TEXCOORD_0":6},"indices":7,"material":2,"mode":4},{"attributes":{"COLOR_0":8,"NORMAL":9,"POSITION":10,"TEXCOORD_0":11},"indices":12,"material":0,"mode":4}]}],"nodes":[{"mesh":0,"name":"Piece"}],"samplers":[{"magFilter":9729,"minFilter":9987,"wrapS":33071,"wrapT":33071}],"scene":0,"scenes":[{"nodes":[0]}],"textures":[{"sampler":0,"extensions":{"EXT_texture_avif":{"source":0}}},{"sampler":0,"source":1}],"buffers":[{"byteLength":5784,"uri":"/resources/assets/cards/christian/01_0.3mm.svg-geometry.bin"}]}