{"accessors":[{"bufferView":0,"componentType":5126,"count":7,"type":"VEC3"},{"bufferView":1,"componentType":5126,"count":7,"max":[0.03175000101327896,0.0001500000071246177,0.04762500151991844],"min":[-0.03175000101327896,0.0001500000071246177,-0.04762500151991844],"type":"VEC3"},{"bufferView":2,"componentType":5126,"count":7,"type":"VEC2"},{"bufferView":3,"componentType":5123,"count":18,"type":"SCALAR"},{"bufferView":4,"componentType":5126,"count":7,"type":"VEC3"},{"bufferView":5,"componentType":5126,"count":7,"max":[0.03175000101327896,-0.0001500000071246177,0.04762500151991844],"min":[-0.03175000101327896,-0.0001500000071246177,-0.04762500151991844],"type":"VEC3"},{"bufferView":6,"componentType":5126,"count":7,"type":"VEC2"},{"bufferView":7,"componentType":5123,"count":18,"type":"SCALAR"},{"bufferView":8,"componentType":5126,"count":140,"type":"VEC3"},{"bufferView":9,"componentType":5126,"count":140,"type":"VEC3"},{"bufferView":10,"componentType":5126,"count":140,"max":[0.03175000101327896,0.0001500000071246177,0.04762500151991844],"min":[-0.03175000101327896,-0.0001500000071246177,-0.04762500151991844],"type":"VEC3"},{"bufferView":11,"componentType":5126,"count":140,"type":"VEC2"},{"bufferView":12,"componentType":5123,"count":432,"type":"SCALAR"}],"asset":{"generator":"Probability Play","version":"2.0"},"bufferViews":[{"buffer":0,"byteLength":84,"byteOffset":0,"target":34962},{"buffer":0,"byteLength":84,"byteOffset":84,"target":34962},{"buffer":0,"byteLength":56,"byteOffset":168,"target":34962},{"buffer":0,"byteLength":36,"byteOffset":224,"target":34963},{"buffer":0,"byteLength":84,"byteOffset":260,"target":34962},{"buffer":0,"byteLength":84,"byteOffset":344,"target":34962},{"buffer":0,"byteLength":56,"byteOffset":428,"target":34962},{"buffer":0,"byteLength":36,"byteOffset":484,"target":34963},{"buffer":0,"byteLength":1680,"byteOffset":520,"target":34962},{"buffer":0,"byteLength":1680,"byteOffset":2200,"target":34962},{"buffer":0,"byteLength":1680,"byteOffset":3880,"target":34962},{"buffer":0,"byteLength":1120,"byteOffset":5560,"target":34962},{"buffer":0,"byteLength":864,"byteOffset":6680,"target":34963}],"extensionsUsed":["EXT_texture_avif"],"extensionsRequired":["EXT_texture_avif"],"images":[{"mimeType":"image/avif","uri":"/resources/assets/cards/muslim/24_0.3mm.avif"},{"mimeType":"image/svg+xml","uri":"/resources/assets/cards/muslim/back_0.3mm.svg"}],"materials":[{"name":"plain edge","alphaMode":"BLEND","pbrMetallicRoughness":{"baseColorFactor":[0.955973,0.871367,0.791298,0.9989292619963647],"metallicFactor":0,"roughnessFactor":0.86}},{"alphaMode":"BLEND","name":"printed face","pbrMetallicRoughness":{"baseColorTexture":{"index":0},"metallicFactor":0,"roughnessFactor":0.8}},{"alphaMode":"BLEND","name":"printed face","pbrMetallicRoughness":{"baseColorTexture":{"index":1},"metallicFactor":0,"roughnessFactor":0.8}}],"meshes":[{"name":"Piece","primitives":[{"attributes":{"NORMAL":0,"POSITION":1,"TEXCOORD_0":2},"indices":3,"material":1,"mode":4},{"attributes":{"NORMAL":4,"POSITION":5,"TEXCOORD_0":6},"indices":7,"material":2,"mode":4},{"attributes":{"COLOR_0":8,"NORMAL":9,"POSITION":10,"TEXCOORD_0":11},"indices":12,"material":0,"mode":4}]}],"nodes":[{"mesh":0,"name":"Piece"}],"samplers":[{"magFilter":9729,"minFilter":9987,"wrapS":33071,"wrapT":33071}],"scene":0,"scenes":[{"nodes":[0]}],"textures":[{"sampler":0,"extensions":{"EXT_texture_avif":{"source":0}}},{"sampler":0,"source":1}],"buffers":[{"byteLength":7544,"uri":"/resources/assets/cards/muslim/24_0.3mm.svg-geometry.bin"}]}